#!OML:ASF E:\Steps\Project 1\Capture day 1\Session 2\Subject.ASF
:FULLY-SPECIFIED
:DEGREES
976
root 9.22802 25.111 -14.6521 -153.532 -1.75706 178.544
lowerback -31.6954 -1.64082 -6.33831
upperback -1.12124 -0.517294 -0.491751
thorax 15.3162 -0.957899 2.59728
lowerneck -0.957863 -1.15297 -4.26131
upperneck -4.64942 -1.48428 7.72222
head -1.21608 -0.865448 3.25173
rclavicle 7.20594e-015 9.14409e-015
rhumerus -37.0559 -17.6613 -79.0232
rradius 30.9017
rwrist -2.08353
rhand -7.53096 -53.1886
rfingers 7.12502
rthumb 18.3601 637.658
lclavicle 7.20594e-015 9.14409e-015
lhumerus -30.3475 7.04092 80.5595
lradius 27.2727
lwrist -1.6063
lhand -21.1029 -12.6566
lfingers 7.12502
lthumb 5.27497 17.2578
rfemur -21.8085 6.55324 18.5966
rtibia 5.70042
rfoot -17.8433 -6.62912
rtoes -28.9964
lfemur -22.2107 -8.41747 -21.473
ltibia 8.41619
lfoot -8.9898 2.82151
ltoes -34.242
977
root 9.22741 25.1115 -14.6522 -153.542 -1.72662 178.496
lowerback -31.7249 -1.67041 -6.35132
upperback -1.08686 -0.54284 -0.496521
thorax 15.3722 -0.970343 2.58801
lowerneck -1.07224 -1.13201 -4.22001
upperneck -4.65573 -1.4571 7.6891
head -1.19994 -0.851444 3.231
rclavicle -3.08116e-015 1.15295e-014
rhumerus -36.9812 -17.6526 -78.9997
rradius 30.7591
rwrist -2.08422
rhand -7.60379 -53.2686
rfingers 7.12502
rthumb 18.29 637.571
lclavicle -3.08116e-015 1.15295e-014
lhumerus -30.3126 7.27398 80.4699
lradius 27.0023
lwrist -1.84712
lhand -21.0397 -12.7171
lfingers 7.12502
lthumb 5.33602 17.1957
rfemur -21.8298 6.54457 18.5327
rtibia 5.74993
rfoot -17.872 -6.61682
rtoes -29.0379
lfemur -22.1683 -8.39454 -21.5469
ltibia 8.36855
lfoot -8.9585 2.80707
ltoes -34.4031
978
root 9.22708 25.1121 -14.652 -153.575 -1.72029 178.475
lowerback -31.6376 -1.69547 -6.34874
upperback -1.12871 -0.589139 -0.495992
thorax 15.2881 -0.989126 2.56919
lowerneck -1.13384 -1.13809 -4.23305
upperneck -4.62408 -1.46611 7.76199
head -1.17798 -0.856505 3.25741
rclavicle -1.09829e-014 -1.70955e-014
rhumerus -37.0383 -17.6179 -78.9595
rradius 30.6424
rwrist -2.10183
rhand -7.70042 -52.7311
rfingers 7.12502
rthumb 18.1971 638.1
lclavicle -1.09829e-014 -1.70955e-014
lhumerus -30.448 7.42056 80.3565
lradius 26.7349
lwrist -2.05681
lhand -21.1263 -12.726
lfingers 7.12502
lthumb 5.25239 17.1889
rfemur -21.7672 6.46264 18.5308
rtibia 5.72243
rfoot -18.0009 -6.52016
rtoes -29.0021
lfemur -22.0957 -8.38075 -21.5855
ltibia 8.30333
lfoot -8.95123 2.77265
ltoes -34.4503
979
root 9.22961 25.1115 -14.6537 -153.579 -1.6488 178.415
lowerback -31.6681 -1.73087 -6.43157
upperback -1.13456 -0.606884 -0.498054
thorax 15.2954 -1.00417 2.60308
lowerneck -1.30819 -1.23364 -4.30254
upperneck -4.56955 -1.59464 7.91226
head -1.12008 -0.92035 3.31966
rclavicle -3.03147e-015 1.59028e-014
rhumerus -37.1145 -17.7032 -78.8866
rradius 30.6499
rwrist -2.06465
rhand -7.83437 -52.3907
rfingers 7.12502
rthumb 18.0682 638.428
lclavicle -3.03147e-015 1.59028e-014
lhumerus -30.551 7.56753 80.2498
lradius 26.4718
lwrist -2.26542
lhand -21.1995 -12.9938
lfingers 7.12502
lthumb 5.18168 16.9229
rfemur -21.6959 6.45551 18.4621
rtibia 5.59423
rfoot -17.8575 -6.54047
rtoes -29.6197
lfemur -22.0603 -8.25572 -21.685
ltibia 8.28043
lfoot -9.02714 2.72185
ltoes -34.724
980
root 9.23269 25.1115 -14.6545 -153.55 -1.54826 178.335
lowerback -31.69 -1.78701 -6.56989
upperback -1.16372 -0.641255 -0.471381
thorax 15.2729 -1.03143 2.6913
lowerneck -0.886231 -0.947853 -4.2216
upperneck -4.68146 -1.21152 7.79163
head -1.25732 -0.734639 3.26885
rclavicle -4.02539e-015 2.66371e-014
rhumerus -37.3391 -17.7458 -78.7681
rradius 30.9094
rwrist -1.95705
rhand -7.82102 -52.7882
rfingers 7.12502
rthumb 18.0811 638.032
lclavicle -4.02539e-015 2.66371e-014
lhumerus -30.6373 7.8335 80.1509
lradius 26.1531
lwrist -2.47921
lhand -21.2345 -13.3018
lfingers 7.12502
lthumb 5.14793 16.6157
rfemur -21.6869 6.63906 18.2981
rtibia 5.42793
rfoot -17.7702 -6.67294
rtoes -29.4633
lfemur -22.0736 -8.14459 -21.7962
ltibia 8.27228
lfoot -9.0886 2.72274
ltoes -34.8545
981
root 9.23236 25.1117 -14.6509 -153.514 -1.61507 178.435
lowerback -31.5989 -1.81134 -6.47069
upperback -1.23437 -0.73646 -0.39245
thorax 15.1603 -1.06665 2.68656
lowerneck -1.16118 -1.08794 -4.41608
upperneck -4.54423 -1.39742 7.90131
head -1.15097 -0.819287 3.33903
rclavicle 1.40143e-014 -2.78299e-014
rhumerus -37.5406 -17.8275 -78.588
rradius 31.0166
rwrist -1.69731
rhand -7.623 -52.8518
rfingers 7.12502
rthumb 18.2716 637.986
lclavicle 1.40143e-014 -2.78299e-014
lhumerus -30.7152 8.15811 80.0647
lradius 25.8431
lwrist -2.69608
lhand -21.2406 -13.647
lfingers 7.12502
lthumb 5.14199 16.2707
rfemur -21.7519 6.72772 18.4008
rtibia 5.44843
rfoot -17.8172 -6.7099
rtoes -28.9604
lfemur -22.1191 -8.14539 -21.652
ltibia 8.23014
lfoot -8.99228 2.69476
ltoes -35.0354
982
root 9.23211 25.1114 -14.6465 -153.477 -1.67625 178.533
lowerback -31.4334 -1.81817 -6.37087
upperback -1.36468 -0.822127 -0.330029
thorax 14.9431 -1.09684 2.6686
lowerneck -1.03612 -1.03309 -4.46185
upperneck -4.53959 -1.32332 7.89466
head -1.17659 -0.781891 3.34686
rclavicle 4.52235e-015 -6.36111e-015
rhumerus -37.8118 -17.8021 -78.4327
rradius 31.0612
rwrist -1.54099
rhand -7.39406 -52.8492
rfingers 7.12502
rthumb 18.4918 638.01
lclavicle 4.52235e-015 -6.36111e-015
lhumerus -30.876 8.42978 79.9651
lradius 25.5526
lwrist -2.85944
lhand -21.1384 -13.6775
lfingers 7.12502
lthumb 5.24075 16.2377
rfemur -21.8814 6.65993 18.5468
rtibia 5.65546
rfoot -17.9531 -6.60634
rtoes -28.8841
lfemur -22.1899 -8.16418 -21.5029
ltibia 8.23258
lfoot -8.92304 2.62517
ltoes -34.8199
983
root 9.23303 25.1114 -14.6429 -153.431 -1.63084 178.517
lowerback -31.3804 -1.82449 -6.38516
upperback -1.43072 -0.842098 -0.330377
thorax 14.8434 -1.1069 2.66818
lowerneck -0.979369 -0.966724 -4.41563
upperneck -4.51971 -1.23551 7.83402
head -1.18652 -0.737492 3.31722
rclavicle 1.68967e-015 -1.39149e-014
rhumerus -38.035 -17.8141 -78.3397
rradius 31.1618
rwrist -1.50931
rhand -7.21144 -53.2203
rfingers 7.12502
rthumb 18.6675 637.655
lclavicle 1.68967e-015 -1.39149e-014
lhumerus -30.9124 8.57489 79.8584
lradius 25.1568
lwrist -2.97244
lhand -21.0593 -13.2333
lfingers 7.12502
lthumb 5.31708 16.68
rfemur -21.9428 6.64368 18.5185
rtibia 5.64954
rfoot -17.9267 -6.52418
rtoes -28.8599
lfemur -22.2679 -8.16665 -21.5023
ltibia 8.23943
lfoot -8.93104 2.62206
ltoes -34.0091
984
root 9.23348 25.1113 -14.6396 -153.379 -1.58533 178.495
lowerback -31.42 -1.83981 -6.39306
upperback -1.41861 -0.855914 -0.330797
thorax 14.8763 -1.11462 2.66531
lowerneck -0.969766 -0.864728 -4.39362
upperneck -4.53849 -1.09918 7.81379
head -1.20364 -0.670203 3.30606
rclavicle 1.39149e-015 -2.8625e-014
rhumerus -38.019 -18.1091 -78.1609
rradius 30.9952
rwrist -1.24261
rhand -7.09064 -52.9164
rfingers 7.12502
rthumb 18.7836 637.971
lclavicle 1.39149e-015 -2.8625e-014
lhumerus -30.8391 8.68471 79.7916
lradius 24.804
lwrist -3.02268
lhand -21.019 -12.6452
lfingers 7.12502
lthumb 5.35601 17.2671
rfemur -21.9675 6.6968 18.4641
rtibia 5.5561
rfoot -17.8316 -6.55172
rtoes -28.8322
lfemur -22.3449 -8.15122 -21.5241
ltibia 8.24573
lfoot -8.94157 2.65965
ltoes -33.673
985
root 9.23481 25.1116 -14.6383 -153.393 -1.54619 178.472
lowerback -31.3711 -1.85883 -6.43003
upperback -1.42901 -0.873576 -0.318964
thorax 14.8443 -1.12425 2.69193
lowerneck -1.2583 -1.02571 -4.5151
upperneck -4.39371 -1.31382 7.8922
head -1.09076 -0.769905 3.35155
rclavicle 3.67752e-015 -2.90226e-014
rhumerus -37.9923 -18.461 -77.9324
rradius 30.666
rwrist -0.950814
rhand -7.19939 -52.2719
rfingers 7.12502
rthumb 18.6791 638.605
lclavicle 3.67752e-015 -2.90226e-014
lhumerus -30.8856 8.86131 79.6983
lradius 24.4944
lwrist -3.13038
lhand -20.9617 -12.2239
lfingers 7.12502
lthumb 5.41131 17.6871
rfemur -21.9844 6.67135 18.4373
rtibia 5.60857
rfoot -17.879 -6.50406
rtoes -28.6917
lfemur -22.3028 -8.07145 -21.5677
ltibia 8.17443
lfoot -8.88851 2.61242
ltoes -33.9742
986
root 9.2365 25.112 -14.6385 -153.439 -1.52261 178.469
lowerback -31.315 -1.851 -6.43341
upperback -1.44118 -0.864619 -0.337857
thorax 14.804 -1.11895 2.67797
lowerneck -1.14813 -1.04248 -4.43548
upperneck -4.45527 -1.33793 7.90293
head -1.12865 -0.787025 3.34216
rclavicle 7.8023e-015 -4.37326e-014
rhumerus -38.0205 -18.8112 -77.7732
rradius 30.368
rwrist -0.697933
rhand -7.48938 -51.9332
rfingers 7.12502
rthumb 18.4001 638.917
lclavicle 7.8023e-015 -4.37326e-014
lhumerus -30.9438 9.0903 79.4963
lradius 24.0263
lwrist -3.46338
lhand -21.0079 -12.6117
lfingers 7.12502
lthumb 5.36671 17.3004
rfemur -21.9683 6.59086 18.461
rtibia 5.66054
rfoot -17.7928 -6.41786
rtoes -28.7427
lfemur -22.2012 -8.02256 -21.5751
ltibia 8.05184
lfoot -8.84395 2.55813
ltoes -33.594
987
root 9.23773 25.1126 -14.6382 -153.442 -1.50316 178.508
lowerback -31.3205 -1.84431 -6.3906
upperback -1.42663 -0.867087 -0.34279
thorax 14.8238 -1.11694 2.64854
lowerneck -1.32669 -1.1063 -4.41422
upperneck -4.41585 -1.42506 7.97298
head -1.07824 -0.830547 3.35972
rclavicle 2.73329e-015 3.02153e-014
rhumerus -37.988 -19.0336 -77.6996
rradius 30.1575
rwrist -0.540917
rhand -7.94496 -51.5727
rfingers 7.12502
rthumb 17.9618 639.237
lclavicle 2.73329e-015 3.02153e-014
lhumerus -30.8885 9.40828 79.2824
lradius 23.4492
lwrist -3.86923
lhand -21.2345 -13.5363
lfingers 7.12502
lthumb 5.14792 16.3811
rfemur -21.9732 6.5815 18.5139
rtibia 5.64472
rfoot -17.7508 -6.44325
rtoes -29.0573
lfemur -22.194 -8.04158 -21.5239
ltibia 8.06064
lfoot -8.89117 2.62678
ltoes -33.3026
988
root 9.23866 25.1136 -14.6389 -153.446 -1.48066 178.559
lowerback -31.3325 -1.85682 -6.35543
upperback -1.40092 -0.895333 -0.298395
thorax 14.8634 -1.12772 2.66666
lowerneck -1.19696 -1.04815 -4.36208
upperneck -4.63757 -1.34613 7.95703
head -1.17827 -0.799835 3.34889
rclavicle 1.98785e-016 -1.35174e-014
rhumerus -37.9175 -18.9914 -77.6553
rradius 30.0253
rwrist -0.604596
rhand -8.2586 -51.3042
rfingers 7.12502
rthumb 17.66 639.478
lclavicle 1.98785e-016 -1.35174e-014
lhumerus -30.8568 9.69256 79.1904
lradius 23.0888
lwrist -4.07027
lhand -21.2914 -13.4368
lfingers 7.12502
lthumb 5.09297 16.482
rfemur -21.9381 6.58778 18.5791
rtibia 5.5741
rfoot -17.7708 -6.4655
rtoes -29.2611
lfemur -22.1736 -7.98868 -21.4859
ltibia 8.07341
lfoot -8.91945 2.67842
ltoes -33.4753
989
root 9.23987 25.1138 -14.6388 -153.442 -1.46811 178.576
lowerback -31.345 -1.87909 -6.34359
upperback -1.38618 -0.929344 -0.264709
thorax 14.8904 -1.14273 2.68304
lowerneck -1.75555 -1.25297 -4.58554
upperneck -4.2203 -1.61966 8.07035
head -0.92484 -0.916781 3.41832
rclavicle -1.98785e-016 -3.97569e-016
rhumerus -37.9202 -18.9012 -77.6163
rradius 30.0276
rwrist -0.73992
rhand -8.19289 -51.175
rfingers 7.12502
rthumb 17.7232 639.613
lclavicle -1.98785e-016 -3.97569e-016
lhumerus -31.0613 9.74314 79.1407
lradius 23.0942
lwrist -3.97978
lhand -21.0163 -12.39
lfingers 7.12502
lthumb 5.35861 17.5223
rfemur -21.9201 6.6124 18.6043
rtibia 5.53843
rfoot -17.8537 -6.49764
rtoes -29.3645
lfemur -22.144 -7.86423 -21.488
ltibia 8.00985
lfoot -8.91956 2.59662
ltoes -33.0733
